PathFileType	4	(X/Y/Z)	 s01c0401.trc
DataRate	CameraRate	NumFrames	NumMarkers	Units	OrigDataRate	OrigDataStartFrame	OrigNumFrames
200	200	6	48	mm	200	251	2000
Frame#	Time	racr			lacr			c7			jug			rlel			rdr			llel			ldr			s2			lic			ric			lasi			rasi			rpsi			lpsi			rgt			lgt			rth1			rth2			rth3			rth4			rlfc			rsh1			rsh2			rsh3			rsh4			rlmal			rmmal			rcal			rtoe			rmt5			lth1			lth2			lth4			lth3			llfc			lsh1			lsh2			lsh3			lsh4			llmal			lmmal			lcal			ltoe			lmt5			SBIKE			LBIKE			RBIKE			
		X1	Y1	Z1	X2	Y2	Z2	X3	Y3	Z3	X4	Y4	Z4	X5	Y5	Z5	X6	Y6	Z6	X7	Y7	Z7	X8	Y8	Z8	X9	Y9	Z9	X10	Y10	Z10	X11	Y11	Z11	X12	Y12	Z12	X13	Y13	Z13	X14	Y14	Z14	X15	Y15	Z15	X16	Y16	Z16	X17	Y17	Z17	X18	Y18	Z18	X19	Y19	Z19	X20	Y20	Z20	X21	Y21	Z21	X22	Y22	Z22	X23	Y23	Z23	X24	Y24	Z24	X25	Y25	Z25	X26	Y26	Z26	X27	Y27	Z27	X28	Y28	Z28	X29	Y29	Z29	X30	Y30	Z30	X31	Y31	Z31	X32	Y32	Z32	X33	Y33	Z33	X34	Y34	Z34	X35	Y35	Z35	X36	Y36	Z36	X37	Y37	Z37	X38	Y38	Z38	X39	Y39	Z39	X40	Y40	Z40	X41	Y41	Z41	X42	Y42	Z42	X43	Y43	Z43	X44	Y44	Z44	X45	Y45	Z45	X46	Y46	Z46	X47	Y47	Z47	X48	Y48	Z48	
251	1.2550	481.788842	1366.278621	-105.530116	473.259128	1344.085371	-428.385903	434.148034	1417.534997	-267.022213	467.809162	1263.930018	-259.500233	562.722492	1108.002424	4.479784	711.184556	895.013739	-37.567327	535.467792	1080.080123	-530.499790	708.063908	901.005976	-444.209836	-65.804524	1147.535308	-249.415115	111.098002	1150.883509	-418.545005	100.853177	1145.441607	-94.536621	110.585082	1098.153989	-397.156685	122.322783	1095.638711	-123.036657	-32.071264	1184.958954	-196.613370	-34.453191	1188.432455	-302.920139	38.232381	1032.263068	-61.379329	51.173861	1020.841937	-447.183374	137.932975	940.351665	-42.301747	205.778079	892.404565	-41.573623	276.179826	834.997729	-50.781553	240.039309	935.096332	-53.571279	331.297560	748.985501	-70.417867	235.041671	682.215249	-45.593939	172.377447	625.219703	-52.831492	101.164937	573.504961	-68.939511	205.079384	591.144352	-90.689089	2.023578	495.450962	-92.146916	45.266942	492.964314	-171.166788	-56.451073	485.999787	-147.062819	179.655654	352.110889	-136.019401	73.614152	370.115456	-65.487380	136.034921	921.041572	-454.919180	214.964700	885.442136	-445.778530	238.938448	934.526628	-440.005546	287.434470	843.336506	-425.127453	366.240107	769.120106	-406.660459	321.858156	660.747782	-438.292399	309.101126	575.186929	-432.724109	293.436906	491.454866	-419.307100	363.808274	569.191360	-405.121752	272.265790	367.115500	-403.187616	280.386522	340.257332	-363.718951	NaN	NaN	NaN	502.295688	321.151867	-370.178669	398.460720	295.112688	-435.560592	-271.558118	877.588383	-266.213568	-12.093647	84.382731	-453.441351	-20.323431	80.810004	-53.799051	
252	1.2600	481.720009	1366.268761	-105.476223	473.216242	1344.015288	-428.487939	433.916393	1417.514091	-267.093909	467.469334	1263.866479	-258.797074	562.589411	1107.933717	4.513298	711.134998	895.022976	-37.627733	535.268717	1079.908713	-530.620628	707.959059	900.935642	-444.246464	-65.800748	1147.501402	-249.357380	111.071236	1150.859049	-418.576334	100.837685	1145.486960	-94.563683	110.586471	1098.088876	-397.119517	122.338269	1095.668370	-123.029954	-32.071267	1184.922890	-196.572145	-34.479777	1188.383085	-302.898533	38.256534	1032.262126	-61.355598	51.209289	1020.855173	-447.181979	137.864612	940.257999	-42.327044	205.641731	892.210782	-41.568499	276.029715	834.767607	-50.734183	239.973745	934.890580	-53.531771	331.074216	748.594754	-70.357032	235.061484	681.622541	-45.331103	172.236960	624.706320	-52.805458	101.050886	572.904993	-68.872371	204.922901	590.686040	-90.677906	1.907702	494.772435	-92.120093	45.184756	492.384695	-171.134600	-56.550850	485.349782	-147.051694	179.574928	351.498476	-135.993084	73.477575	369.534270	-65.498519	136.231106	921.214797	-454.903873	215.196114	885.777034	-445.802939	239.077436	934.803026	-439.942718	287.721268	843.701743	-425.297100	366.619249	769.550648	-406.817858	322.078313	661.228503	-438.385041	309.246675	575.702303	-432.784288	293.519991	491.977008	-419.310294	364.013190	569.635937	-405.177596	272.217315	367.701905	-403.421707	280.424598	340.762580	-363.658223	NaN	NaN	NaN	502.336598	321.927435	-370.174400	398.545865	295.750485	-435.543191	-271.519926	877.579365	-266.111818	-12.094240	84.381295	-453.433458	-20.317906	80.809610	-53.785648	
253	1.2650	481.666542	1366.274282	-105.452806	473.179038	1343.941203	-428.610682	433.720022	1417.500289	-267.167068	467.431277	1263.993051	-258.742299	562.442473	1107.862525	4.531360	711.060520	894.994536	-37.697040	535.095235	1079.705213	-530.743223	707.825218	900.813968	-444.241574	-65.774932	1147.448857	-249.282204	111.030688	1150.834154	-418.577511	100.850661	1145.495402	-94.569006	110.573169	1098.046506	-397.094609	122.354511	1095.666525	-123.027482	-32.055991	1184.885646	-196.531953	-34.496232	1188.330902	-302.866736	38.283570	1032.235741	-61.342596	51.235686	1020.873432	-447.191716	137.771151	940.097034	-42.323240	205.478454	891.929757	-41.529276	275.761409	834.356108	-50.695685	239.852703	934.555545	-53.471783	330.781701	748.123212	-70.320231	234.809112	681.105360	-45.238417	172.008368	624.086916	-52.773530	100.859913	572.223272	-68.859243	204.717229	590.057832	-90.622986	1.718822	494.087011	-92.117265	45.009808	491.641215	-171.108821	-56.694772	484.687671	-147.064569	179.428999	350.718511	-135.984619	73.317839	368.684552	-65.494957	136.450137	921.416242	-454.890157	215.503682	886.145038	-445.860180	239.237155	935.299862	-439.920267	288.083818	844.134601	-425.465042	367.089537	770.097408	-406.948246	322.385874	661.824315	-438.464677	309.473133	576.226687	-432.765968	293.674501	492.624674	-419.310729	364.229964	570.135138	-405.244245	272.207852	368.413168	-403.634158	280.507341	341.413468	-363.569311	NaN	NaN	NaN	502.489154	322.687134	-370.157766	398.672011	296.500897	-435.522130	-271.583955	877.592315	-266.192537	-12.097923	84.376722	-453.432754	-20.315076	80.806300	-53.799780	
254	1.2700	481.633663	1366.258969	-105.463861	473.161759	1343.878365	-428.697768	433.552543	1417.465599	-267.214809	467.442920	1264.101899	-258.746127	562.286909	1107.795612	4.542469	710.995504	894.958004	-37.734120	534.915033	1079.526846	-530.885695	707.700907	900.716540	-444.211913	-65.774282	1147.401174	-249.204749	111.021558	1150.819210	-418.568642	100.835848	1145.500075	-94.580588	110.580892	1098.004336	-397.065154	122.377876	1095.635506	-123.039668	-32.034205	1184.852105	-196.486959	-34.511030	1188.276256	-302.826228	38.304355	1032.164625	-61.342091	51.268077	1020.915680	-447.216919	137.663119	939.754825	-42.307143	205.258846	891.492068	-41.508676	275.473243	833.758683	-50.663562	239.697742	934.112836	-53.431487	330.327846	747.474491	-70.292737	234.399309	680.420649	-45.210531	171.596906	623.318026	-52.755695	100.507589	571.440756	-68.845253	204.395049	589.320419	-90.530118	1.327505	493.130504	-92.191590	44.768761	490.795022	-171.081344	-56.934428	483.720468	-147.051131	179.202599	349.923240	-135.977899	73.089918	367.838750	-65.523832	136.701175	921.650338	-454.885290	215.796500	886.560141	-445.924127	239.429883	935.756406	-439.890150	288.509976	844.697789	-425.629517	367.654368	770.787864	-407.107145	322.785266	662.565783	-438.538168	309.798842	577.014496	-432.764137	293.895134	493.403866	-419.317555	364.556861	570.923951	-405.275613	272.241054	369.251843	-403.820571	280.626932	342.194035	-363.479067	224.256114	331.434687	-362.392291	502.603141	323.676805	-370.123113	398.828775	297.392593	-435.503870	-271.554327	877.581622	-266.087050	-12.101479	84.373804	-453.428067	-20.313321	80.805641	-53.776987	
255	1.2750	481.610833	1366.275269	-105.480399	473.146348	1343.809064	-428.815902	433.413216	1417.425774	-267.312169	467.504886	1264.190815	-258.806540	562.115646	1107.721060	4.539575	710.933347	894.923413	-37.765803	534.741142	1079.280955	-530.993771	707.575162	900.600668	-444.157281	-65.745484	1147.353089	-249.167290	111.015097	1150.797979	-418.554274	100.874353	1145.452430	-94.617997	110.595213	1097.979474	-397.003885	122.397604	1095.578074	-123.054025	-32.025130	1184.793667	-196.431683	-34.524405	1188.222574	-302.779318	38.244243	1032.060331	-61.789804	51.322752	1020.979711	-447.243471	137.503446	939.389443	-42.254154	205.009137	891.017159	-41.486466	275.100728	833.104134	-50.686091	239.558393	933.457831	-53.419734	329.763781	746.704790	-70.300457	233.905222	679.503527	-45.264919	171.121031	622.432064	-52.779946	100.052804	570.457526	-68.849225	203.933365	588.435701	-90.583876	0.968311	492.064763	-92.198841	44.481016	489.788524	-171.052969	-57.199576	482.688149	-147.057944	178.973038	348.939951	-136.020871	72.841332	366.808799	-65.501255	136.987086	921.904757	-454.897636	216.152384	887.012563	-445.953335	239.706011	936.241416	-439.906607	288.987980	845.265349	-425.772198	368.303522	771.542429	-407.229407	323.267926	663.442157	-438.604558	310.236156	577.902779	-432.888303	294.182369	494.320035	-419.324728	364.958844	571.734372	-405.307822	272.320569	370.220481	-403.976551	280.788143	343.147235	-363.423591	224.417169	332.381949	-362.377104	502.765973	324.701374	-370.130150	399.011055	298.417702	-435.487250	-271.607046	877.605341	-266.134789	-12.101772	84.367977	-453.434251	-20.311596	80.793936	-53.801401	
256	1.2800	481.626427	1366.266761	-105.563493	473.165881	1343.735589	-428.889261	433.285757	1417.357048	-267.450336	467.538187	1264.298384	-258.885257	561.944429	1107.629816	4.489226	710.821520	894.834647	-37.843161	534.616621	1079.098063	-531.062637	707.439244	900.487947	-444.071316	-65.696311	1147.285038	-249.145518	111.011537	1150.778015	-418.526575	100.905459	1145.365906	-94.644997	110.587161	1097.949386	-396.987075	122.419211	1095.483758	-123.076279	-31.987872	1184.736024	-196.385094	-34.531098	1188.170164	-302.728788	38.243713	1031.893454	-61.787102	51.365448	1021.047767	-447.278678	137.331700	938.895544	-42.216410	204.686617	890.394018	-41.509061	274.583871	832.392283	-50.714452	239.349373	932.760576	-53.405402	329.134739	745.770466	-70.337471	233.248309	678.581291	-45.293840	170.561594	621.428841	-52.830220	99.548068	569.356564	-68.881489	203.434593	587.417072	-90.537403	0.560239	490.871128	-92.212422	44.106349	488.624247	-171.036848	-57.564743	481.398212	-147.002445	178.714896	347.874304	-135.990424	72.561548	365.610256	-65.518182	137.293248	922.182451	-454.926578	216.587899	887.512174	-446.034605	240.051114	936.766813	-439.886948	289.502367	846.024646	-425.892276	369.045457	772.509627	-407.302538	323.848344	664.455769	-438.664809	310.639144	578.935952	-432.885677	294.541040	495.384796	-419.339721	365.403908	572.675473	-405.301356	272.450051	371.321634	-404.097702	280.987900	344.254622	-363.395725	225.116625	333.871729	-361.538147	502.964981	325.931749	-370.115307	399.214395	299.600776	-435.468737	-271.589164	877.591008	-266.197460	-12.103029	84.369092	-453.432594	-20.306171	80.786367	-53.793123	
